<?xml version="1.0" encoding="UTF-8"?>
<!DOCTYPE svg PUBLIC "-//W3C//DTD SVG 1.1//EN" "http://www.w3.org/Graphics/SVG/1.1/DTD/svg11.dtd">
<svg xmlns="http://www.w3.org/2000/svg" version="1.1" width="200px" height="200px" style="shape-rendering:geometricPrecision; text-rendering:geometricPrecision; image-rendering:optimizeQuality; fill-rule:evenodd; clip-rule:evenodd" xmlns:xlink="http://www.w3.org/1999/xlink">
<g><path style="opacity:0.983" fill="#d0d3f8" d="M 174.5,47.5 C 164.563,52.4702 154.896,57.9702 145.5,64C 146.593,65.3654 147.926,65.6987 149.5,65C 157.611,59.9467 165.945,55.4467 174.5,51.5C 175.167,52.5 175.833,53.5 176.5,54.5C 175.448,54.3505 174.448,54.5172 173.5,55C 166.463,59.3375 159.463,63.6709 152.5,68C 154.667,69.1667 156.833,70.3333 159,71.5C 164.126,68.6874 169.293,66.0207 174.5,63.5C 175.694,64.2719 176.694,65.2719 177.5,66.5C 173.118,68.4411 168.951,70.7745 165,73.5C 164.568,74.6001 165.068,75.2668 166.5,75.5C 168.944,73.9462 171.611,72.9462 174.5,72.5C 174.5,74.5 174.5,76.5 174.5,78.5C 177.329,78.3249 178.996,79.6582 179.5,82.5C 182.231,84.1916 184.898,85.8583 187.5,87.5C 163.9,101.461 140.234,115.127 116.5,128.5C 99.8018,119.646 83.1351,110.479 66.5,101C 64.9632,99.8904 64.2965,98.3904 64.5,96.5C 60.9256,95.3795 57.5922,93.7128 54.5,91.5C 54.6107,90.8826 54.944,90.3826 55.5,90C 52.0016,89.0534 50.5016,86.8867 51,83.5C 52.5793,84.172 53.746,83.5053 54.5,81.5C 60.7092,85.3507 67.0426,89.0174 73.5,92.5C 74.5,92 75.5,91.5 76.5,91C 68.9171,86.6258 61.4171,82.1258 54,77.5C 53.5172,78.448 53.3505,79.448 53.5,80.5C 49.2169,81.6473 45.5502,83.814 42.5,87C 46.1943,89.1782 49.8609,91.3448 53.5,93.5C 57.1983,95.686 60.5317,98.3527 63.5,101.5C 55.6246,97.3108 47.7913,92.9774 40,88.5C 38.7425,88.8499 38.4092,89.5165 39,90.5C 47.4464,94.9689 55.6131,99.8022 63.5,105C 64.7494,105.74 65.7494,105.573 66.5,104.5C 82.6356,113.402 98.6356,122.569 114.5,132C 115.437,132.692 116.103,132.525 116.5,131.5C 137.307,119.929 157.974,108.096 178.5,96C 181.309,94.2589 184.309,93.0922 187.5,92.5C 188.11,93.391 188.443,94.391 188.5,95.5C 164.335,108.412 140.668,122.079 117.5,136.5C 100.162,126.498 82.8286,116.498 65.5,106.5C 64.8933,106.624 64.56,106.957 64.5,107.5C 55.5274,102.345 46.5274,97.1785 37.5,92C 36.1667,91.3333 34.8333,91.3333 33.5,92C 43.7311,98.9479 54.3977,105.115 65.5,110.5C 83.0064,120.421 100.673,130.087 118.5,139.5C 117.71,140.401 116.71,141.068 115.5,141.5C 97.9683,131.235 80.3016,121.235 62.5,111.5C 51.8879,105.524 41.2212,99.524 30.5,93.5C 29.6919,93.8076 29.0253,94.3076 28.5,95C 39.6977,101.765 51.031,108.265 62.5,114.5C 79.9372,124.724 97.6039,134.724 115.5,144.5C 138.105,132.196 160.438,119.362 182.5,106C 184.025,104.991 185.692,104.491 187.5,104.5C 187.833,105.5 188.5,106.167 189.5,106.5C 166.364,121.241 142.697,135.241 118.5,148.5C 101.56,138.692 84.5596,128.859 67.5,119C 66.5165,118.409 65.8499,118.743 65.5,120C 66.34,121.767 67.6734,123.101 69.5,124C 85.813,133.265 102.146,142.432 118.5,151.5C 138.608,140.276 158.608,128.776 178.5,117C 181.309,115.259 184.309,114.092 187.5,113.5C 187.5,113.833 187.5,114.167 187.5,114.5C 163.699,127.568 140.032,140.901 116.5,154.5C 98.5346,145.765 81.0346,136.099 64,125.5C 63.4054,126.899 63.5721,128.232 64.5,129.5C 63.7579,130.287 62.9246,130.953 62,131.5C 44.0249,121.77 26.5249,111.437 9.5,100.5C 23.7247,92.537 37.7247,84.2037 51.5,75.5C 60.5421,79.1884 69.2088,83.6884 77.5,89C 78.635,89.7494 79.635,89.5827 80.5,88.5C 77.8915,85.8557 74.8915,83.689 71.5,82C 64.2281,77.8657 56.8948,74.0324 49.5,70.5C 49.8333,69.5 50.5,68.8333 51.5,68.5C 62.0982,73.8009 72.4316,79.6342 82.5,86C 84.0738,86.6987 85.4071,86.3654 86.5,85C 74.946,77.9398 63.2793,71.1064 51.5,64.5C 51.5,63.8333 51.5,63.1667 51.5,62.5C 64.4294,68.966 77.096,75.966 89.5,83.5C 90.5,83 91.5,82.5 92.5,82C 80.9962,75.0804 69.3295,68.4138 57.5,62C 54.9306,60.2405 52.5972,58.4072 50.5,56.5C 72.4386,44.5288 94.1052,32.0288 115.5,19C 117.725,17.8694 120.058,17.0361 122.5,16.5C 139.561,25.8695 156.561,35.5361 173.5,45.5C 174.298,45.9569 174.631,46.6236 174.5,47.5 Z"/></g>
<g><path style="opacity:1" fill="#667989" d="M 127.5,26.5 C 137.563,31.7022 147.563,37.2022 157.5,43C 155.167,45 152.833,45 150.5,43C 141.968,38.2383 133.635,33.2383 125.5,28C 126.416,27.7216 127.082,27.2216 127.5,26.5 Z"/></g>
<g><path style="opacity:1" fill="#697c8d" d="M 125.5,31.5 C 132.941,35.3898 140.274,39.5564 147.5,44C 145.495,46.6031 143.162,46.6031 140.5,44C 134.833,40.5 129.167,37 123.5,33.5C 124.243,32.8182 124.909,32.1515 125.5,31.5 Z"/></g>
<g><path style="opacity:1" fill="#687c8c" d="M 102.5,31.5 C 118.387,39.1124 133.721,47.779 148.5,57.5C 146.813,58.568 145.146,58.4014 143.5,57C 130.833,49.6667 118.167,42.3333 105.5,35C 103.937,34.2411 102.937,33.0744 102.5,31.5 Z"/></g>
<g><path style="opacity:1" fill="#687b8c" d="M 97.5,35.5 C 99.4346,34.291 101.435,34.4577 103.5,36C 117.363,43.7613 131.03,51.7613 144.5,60C 142.941,61.7557 141.274,61.7557 139.5,60C 125.637,51.5693 111.637,43.4027 97.5,35.5 Z"/></g>
<g><path style="opacity:1" fill="#687b8c" d="M 84.5,42.5 C 87.0163,42.7553 89.3496,43.5886 91.5,45C 99.9083,50.3995 108.575,55.3995 117.5,60C 116.407,61.3654 115.074,61.6987 113.5,61C 104.833,56 96.1667,51 87.5,46C 85.9371,45.2411 84.9371,44.0744 84.5,42.5 Z"/></g>
<g><path style="opacity:1" fill="#687b8b" d="M 93.5,36.5 C 94.552,36.3505 95.552,36.5172 96.5,37C 108.203,44.1809 119.869,51.3476 131.5,58.5C 130.635,59.5827 129.635,59.7494 128.5,59C 116.5,52 104.5,45 92.5,38C 93.056,37.6174 93.3893,37.1174 93.5,36.5 Z"/></g>
<g><path style="opacity:0.989" fill="#9092c5" d="M 174.5,47.5 C 174.5,48.8333 174.5,50.1667 174.5,51.5C 165.945,55.4467 157.611,59.9467 149.5,65C 147.926,65.6987 146.593,65.3654 145.5,64C 154.896,57.9702 164.563,52.4702 174.5,47.5 Z"/></g>
<g><path style="opacity:1" fill="#687c8c" d="M 79.5,44.5 C 92.8883,51.0306 105.888,58.3639 118.5,66.5C 118,66.8333 117.5,67.1667 117,67.5C 103.94,60.7207 91.1071,53.554 78.5,46C 79.056,45.6174 79.3893,45.1174 79.5,44.5 Z"/></g>
<g><path style="opacity:1" fill="#697c8c" d="M 88.5,39.5 C 91.0163,39.7553 93.3496,40.5886 95.5,42C 106.369,48.2633 117.036,54.7633 127.5,61.5C 125.813,62.568 124.146,62.4014 122.5,61C 112.33,54.7475 101.997,48.7475 91.5,43C 89.9371,42.2411 88.9371,41.0744 88.5,39.5 Z"/></g>
<g><path style="opacity:1" fill="#687b8b" d="M 66.5,52.5 C 75.4385,56.9712 84.1052,61.9712 92.5,67.5C 91.277,68.6139 89.9437,68.7805 88.5,68C 81.1667,63.6667 73.8333,59.3333 66.5,55C 65.4019,54.2303 65.4019,53.397 66.5,52.5 Z"/></g>
<g><path style="opacity:1" fill="#687b8b" d="M 70.5,50.5 C 73.0163,50.7553 75.3496,51.5886 77.5,53C 88.1667,59.3333 98.8333,65.6667 109.5,72C 107.833,72.6667 106.167,72.6667 104.5,72C 94.3304,65.7475 83.9971,59.7475 73.5,54C 71.9371,53.2411 70.9371,52.0744 70.5,50.5 Z"/></g>
<g><path style="opacity:1" fill="#687b8b" d="M 74.5,47.5 C 87.7897,53.9132 100.79,61.0799 113.5,69C 111.941,70.7557 110.274,70.7557 108.5,69C 98.3304,62.7475 87.9971,56.7475 77.5,51C 75.9371,50.2411 74.9371,49.0744 74.5,47.5 Z"/></g>
<g><path style="opacity:1" fill="#9ea0d1" d="M 176.5,54.5 C 175.833,57.5 175.167,60.5 174.5,63.5C 169.293,66.0207 164.126,68.6874 159,71.5C 156.833,70.3333 154.667,69.1667 152.5,68C 159.463,63.6709 166.463,59.3375 173.5,55C 174.448,54.5172 175.448,54.3505 176.5,54.5 Z"/></g>
<g><path style="opacity:1" fill="#b0b4f4" d="M 50.5,56.5 C 52.5972,58.4072 54.9306,60.2405 57.5,62C 69.3295,68.4138 80.9962,75.0804 92.5,82C 91.5,82.5 90.5,83 89.5,83.5C 77.096,75.966 64.4294,68.966 51.5,62.5C 50.0532,61.8658 49.3866,60.6991 49.5,59C 49.528,57.9302 49.8614,57.0968 50.5,56.5 Z"/></g>
<g><path style="opacity:0.901" fill="#8e8ec2" d="M 177.5,66.5 C 178.747,69.3452 177.747,71.3452 174.5,72.5C 171.611,72.9462 168.944,73.9462 166.5,75.5C 165.068,75.2668 164.568,74.6001 165,73.5C 168.951,70.7745 173.118,68.4411 177.5,66.5 Z"/></g>
<g><path style="opacity:1" fill="#657988" d="M 139.5,67.5 C 149.719,71.9452 159.385,77.4452 168.5,84C 167.407,85.3654 166.074,85.6987 164.5,85C 155.833,79.6667 147.167,74.3333 138.5,69C 139.056,68.6174 139.389,68.1174 139.5,67.5 Z"/></g>
<g><path style="opacity:1" fill="#687c8c" d="M 137.5,72.5 C 145.259,76.409 152.926,80.5756 160.5,85C 159.737,85.9435 158.737,86.4435 157.5,86.5C 150.712,83.2723 144.046,79.7723 137.5,76C 136.316,74.8545 136.316,73.6879 137.5,72.5 Z"/></g>
<g><path style="opacity:1" fill="#b0b4f4" d="M 49.5,70.5 C 56.8948,74.0324 64.2281,77.8657 71.5,82C 74.8915,83.689 77.8915,85.8557 80.5,88.5C 79.635,89.5827 78.635,89.7494 77.5,89C 69.2088,83.6884 60.5421,79.1884 51.5,75.5C 50.032,74.2209 49.3653,72.5542 49.5,70.5 Z"/></g>
<g><path style="opacity:1" fill="#b2b5f5" d="M 51.5,64.5 C 63.2793,71.1064 74.946,77.9398 86.5,85C 85.4071,86.3654 84.0738,86.6987 82.5,86C 72.4316,79.6342 62.0982,73.8009 51.5,68.5C 51.5,67.1667 51.5,65.8333 51.5,64.5 Z"/></g>
<g><path style="opacity:1" fill="#aaa7ff" d="M 91.5,70.5 C 94.1873,70.3359 96.854,70.5026 99.5,71C 102.361,75.3501 101.028,77.5168 95.5,77.5C 93.3659,77.4847 91.3659,76.9847 89.5,76C 88.0804,73.4264 88.747,71.593 91.5,70.5 Z"/></g>
<g><path style="opacity:1" fill="#6961ff" d="M 92.5,72.5 C 94.1667,72.5 95.8333,72.5 97.5,72.5C 97.5,73.5 97.5,74.5 97.5,75.5C 95.8333,75.5 94.1667,75.5 92.5,75.5C 92.5,74.5 92.5,73.5 92.5,72.5 Z"/></g>
<g><path style="opacity:1" fill="#687b8b" d="M 110.5,76.5 C 110.735,75.9033 111.235,75.5699 112,75.5C 127.062,83.6138 141.895,92.1138 156.5,101C 153.581,101.552 150.914,100.885 148.5,99C 135.673,91.7539 123.006,84.2539 110.5,76.5 Z"/></g>
<g><path style="opacity:1" fill="#b1b5f4" d="M 54.5,81.5 C 54.5,80.8333 54.1667,80.5 53.5,80.5C 53.3505,79.448 53.5172,78.448 54,77.5C 61.4171,82.1258 68.9171,86.6258 76.5,91C 75.5,91.5 74.5,92 73.5,92.5C 67.0426,89.0174 60.7092,85.3507 54.5,81.5 Z"/></g>
<g><path style="opacity:1" fill="#687b8b" d="M 114.5,72.5 C 115.873,72.3433 117.207,72.51 118.5,73C 132.702,81.2632 146.702,89.7632 160.5,98.5C 160.167,98.8333 159.833,99.1667 159.5,99.5C 143.843,91.1895 128.843,82.1895 114.5,72.5 Z"/></g>
<g><path style="opacity:1" fill="#687b8c" d="M 100.5,80.5 C 101.873,80.3433 103.207,80.51 104.5,81C 118.669,89.5858 133.003,97.9191 147.5,106C 146.975,106.692 146.308,107.192 145.5,107.5C 129.876,99.2028 114.876,90.2028 100.5,80.5 Z"/></g>
<g><path style="opacity:1" fill="#a0abc8" d="M 53.5,80.5 C 54.1667,80.5 54.5,80.8333 54.5,81.5C 53.746,83.5053 52.5793,84.172 51,83.5C 50.5016,86.8867 52.0016,89.0534 55.5,90C 54.944,90.3826 54.6107,90.8826 54.5,91.5C 53.6618,91.8417 53.3284,92.5084 53.5,93.5C 49.8609,91.3448 46.1943,89.1782 42.5,87C 45.5502,83.814 49.2169,81.6473 53.5,80.5 Z"/></g>
<g><path style="opacity:0.985" fill="#8f91c5" d="M 187.5,87.5 C 187.5,89.1667 187.5,90.8333 187.5,92.5C 184.309,93.0922 181.309,94.2589 178.5,96C 157.974,108.096 137.307,119.929 116.5,131.5C 115.375,130.652 115.375,129.652 116.5,128.5C 140.234,115.127 163.9,101.461 187.5,87.5 Z"/></g>
<g><path style="opacity:1" fill="#687b8c" d="M 106.5,77.5 C 121.609,85.8906 136.609,94.5573 151.5,103.5C 150.635,104.583 149.635,104.749 148.5,104C 134.5,96 120.5,88 106.5,80C 105.402,79.2303 105.402,78.397 106.5,77.5 Z"/></g>
<g><path style="opacity:1" fill="#687b8b" d="M 87.5,88.5 C 102.9,96.6985 118.233,105.199 133.5,114C 132.975,114.692 132.308,115.192 131.5,115.5C 117.167,107.333 102.833,99.1667 88.5,91C 87.7476,90.3292 87.4142,89.4959 87.5,88.5 Z"/></g>
<g><path style="opacity:1" fill="#697c8c" d="M 95.5,84.5 C 96.9464,83.3871 98.6131,83.2204 100.5,84C 108.908,89.3995 117.575,94.3995 126.5,99C 128.26,99.9653 128.594,101.132 127.5,102.5C 116.806,96.488 106.139,90.488 95.5,84.5 Z"/></g>
<g><path style="opacity:1" fill="#687c8c" d="M 82.5,91.5 C 83.8734,91.3433 85.2068,91.51 86.5,92C 100.702,100.263 114.702,108.763 128.5,117.5C 127.635,118.583 126.635,118.749 125.5,118C 111.664,109.581 97.664,101.414 83.5,93.5C 82.7025,93.0431 82.3691,92.3764 82.5,91.5 Z"/></g>
<g><path style="opacity:1" fill="#687b8c" d="M 64.5,107.5 C 64.5569,108.609 64.8902,109.609 65.5,110.5C 54.3977,105.115 43.7311,98.9479 33.5,92C 34.8333,91.3333 36.1667,91.3333 37.5,92C 46.5274,97.1785 55.5274,102.345 64.5,107.5 Z"/></g>
<g><path style="opacity:1" fill="#697c8d" d="M 63.5,101.5 C 64.3065,102.728 65.3065,103.728 66.5,104.5C 65.7494,105.573 64.7494,105.74 63.5,105C 55.6131,99.8022 47.4464,94.9689 39,90.5C 38.4092,89.5165 38.7425,88.8499 40,88.5C 47.7913,92.9774 55.6246,97.3108 63.5,101.5 Z"/></g>
<g><path style="opacity:1" fill="#677a8a" d="M 92.5,85.5 C 107.641,93.9043 122.641,102.571 137.5,111.5C 135.048,112.314 132.715,111.814 130.5,110C 117.48,102.301 104.48,94.6346 91.5,87C 92.056,86.6174 92.3893,86.1174 92.5,85.5 Z"/></g>
<g><path style="opacity:1" fill="#697d8d" d="M 24.5,96.5 C 33.7215,100.78 42.7215,105.613 51.5,111C 50.9747,111.692 50.3081,112.192 49.5,112.5C 41.6619,107.747 33.6619,103.247 25.5,99C 24.7476,98.3292 24.4142,97.4959 24.5,96.5 Z"/></g>
<g><path style="opacity:0.907" fill="#afb3f2" d="M 9.5,100.5 C 26.5249,111.437 44.0249,121.77 62,131.5C 62.9246,130.953 63.7579,130.287 64.5,129.5C 63.5721,128.232 63.4054,126.899 64,125.5C 81.0346,136.099 98.5346,145.765 116.5,154.5C 114.871,156.196 115.204,157.196 117.5,157.5C 116.749,158.573 115.749,158.74 114.5,158C 100.637,150.239 86.9701,142.239 73.5,134C 71.2533,132.691 68.9199,132.025 66.5,132C 83.6965,142.43 101.03,152.597 118.5,162.5C 118.5,163.5 118.5,164.5 118.5,165.5C 100.495,155.498 82.4953,145.498 64.5,135.5C 62.8008,135.66 61.1341,135.494 59.5,135C 42.8533,125.135 26.1866,115.469 9.5,106C 8.19299,104.057 8.19299,102.223 9.5,100.5 Z"/></g>
<g><path style="opacity:1" fill="#687b8b" d="M 62.5,111.5 C 62.5,112.5 62.5,113.5 62.5,114.5C 51.031,108.265 39.6977,101.765 28.5,95C 29.0253,94.3076 29.6919,93.8076 30.5,93.5C 41.2212,99.524 51.8879,105.524 62.5,111.5 Z"/></g>
<g><path style="opacity:1" fill="#6a7d8e" d="M 78.5,93.5 C 87.4385,97.9712 96.1052,102.971 104.5,108.5C 103.635,109.583 102.635,109.749 101.5,109C 93.8333,104.667 86.1667,100.333 78.5,96C 77.4019,95.2303 77.4019,94.397 78.5,93.5 Z"/></g>
<g><path style="opacity:1" fill="#b1b5f3" d="M 117.5,136.5 C 117.369,137.376 117.702,138.043 118.5,138.5C 120.078,137.36 121.744,136.86 123.5,137C 122.09,138.372 120.423,139.205 118.5,139.5C 100.673,130.087 83.0064,120.421 65.5,110.5C 64.8902,109.609 64.5569,108.609 64.5,107.5C 64.56,106.957 64.8933,106.624 65.5,106.5C 82.8286,116.498 100.162,126.498 117.5,136.5 Z"/></g>
<g><path style="opacity:0.987" fill="#8f91c5" d="M 189.5,106.5 C 191.115,109.402 190.449,111.735 187.5,113.5C 184.309,114.092 181.309,115.259 178.5,117C 158.608,128.776 138.608,140.276 118.5,151.5C 118.5,150.5 118.5,149.5 118.5,148.5C 142.697,135.241 166.364,121.241 189.5,106.5 Z"/></g>
<g><path style="opacity:0.999" fill="#8f91c4" d="M 187.5,114.5 C 187.5,115.833 187.5,117.167 187.5,118.5C 163.963,130.94 140.629,143.94 117.5,157.5C 115.204,157.196 114.871,156.196 116.5,154.5C 140.032,140.901 163.699,127.568 187.5,114.5 Z"/></g>
<g><path style="opacity:1" fill="#b1b5f4" d="M 54.5,91.5 C 57.5922,93.7128 60.9256,95.3795 64.5,96.5C 64.2965,98.3904 64.9632,99.8904 66.5,101C 83.1351,110.479 99.8018,119.646 116.5,128.5C 115.375,129.652 115.375,130.652 116.5,131.5C 116.103,132.525 115.437,132.692 114.5,132C 98.6356,122.569 82.6356,113.402 66.5,104.5C 65.3065,103.728 64.3065,102.728 63.5,101.5C 60.5317,98.3527 57.1983,95.686 53.5,93.5C 53.3284,92.5084 53.6618,91.8417 54.5,91.5 Z"/></g>
<g><path style="opacity:1" fill="#9597ca" d="M 188.5,95.5 C 188.037,98.4824 187.704,101.482 187.5,104.5C 185.692,104.491 184.025,104.991 182.5,106C 160.438,119.362 138.105,132.196 115.5,144.5C 115.5,143.5 115.5,142.5 115.5,141.5C 116.71,141.068 117.71,140.401 118.5,139.5C 120.423,139.205 122.09,138.372 123.5,137C 121.744,136.86 120.078,137.36 118.5,138.5C 117.702,138.043 117.369,137.376 117.5,136.5C 140.668,122.079 164.335,108.412 188.5,95.5 Z"/></g>
<g><path style="opacity:0.992" fill="#d1d4fb" d="M 187.5,118.5 C 188.306,119.728 189.306,120.728 190.5,121.5C 166.17,134.663 142.17,148.329 118.5,162.5C 101.03,152.597 83.6965,142.43 66.5,132C 68.9199,132.025 71.2533,132.691 73.5,134C 86.9701,142.239 100.637,150.239 114.5,158C 115.749,158.74 116.749,158.573 117.5,157.5C 140.629,143.94 163.963,130.94 187.5,118.5 Z"/></g>
<g><path style="opacity:1" fill="#b0b4f3" d="M 62.5,111.5 C 80.3016,121.235 97.9683,131.235 115.5,141.5C 115.5,142.5 115.5,143.5 115.5,144.5C 97.6039,134.724 79.9372,124.724 62.5,114.5C 62.5,113.5 62.5,112.5 62.5,111.5 Z"/></g>
<g><path style="opacity:0.994" fill="#9395c8" d="M 190.5,121.5 C 188.711,125.062 187.044,128.729 185.5,132.5C 182.984,132.755 180.65,133.589 178.5,135C 157.592,147.426 136.592,159.593 115.5,171.5C 115.433,170.041 115.766,168.708 116.5,167.5C 117.5,167.167 118.167,166.5 118.5,165.5C 118.5,164.5 118.5,163.5 118.5,162.5C 142.17,148.329 166.17,134.663 190.5,121.5 Z"/></g>
<g><path style="opacity:1" fill="#b1b5f4" d="M 118.5,148.5 C 118.5,149.5 118.5,150.5 118.5,151.5C 102.146,142.432 85.813,133.265 69.5,124C 67.6734,123.101 66.34,121.767 65.5,120C 65.8499,118.743 66.5165,118.409 67.5,119C 84.5596,128.859 101.56,138.692 118.5,148.5 Z"/></g>
<g><path style="opacity:0.991" fill="#d1d4fb" d="M 185.5,132.5 C 185.833,132.5 186.167,132.5 186.5,132.5C 186.586,133.496 186.252,134.329 185.5,135C 162.473,148.178 139.473,161.345 116.5,174.5C 114.692,174.509 113.025,174.009 111.5,173C 98.1667,165.333 84.8333,157.667 71.5,150C 68.1413,148.513 65.4747,146.346 63.5,143.5C 63.8333,143.5 64.1667,143.5 64.5,143.5C 81.9112,152.04 98.9112,161.373 115.5,171.5C 136.592,159.593 157.592,147.426 178.5,135C 180.65,133.589 182.984,132.755 185.5,132.5 Z"/></g>
<g><path style="opacity:0.873" fill="#8b8dc0" d="M 186.5,132.5 C 187.793,134.364 187.793,136.364 186.5,138.5C 163.052,152.631 139.385,166.298 115.5,179.5C 114.893,179.376 114.56,179.043 114.5,178.5C 115.345,177.329 116.011,175.995 116.5,174.5C 139.473,161.345 162.473,148.178 185.5,135C 186.252,134.329 186.586,133.496 186.5,132.5 Z"/></g>
<g><path style="opacity:0.999" fill="#d3d6fd" d="M 64.5,135.5 C 82.4953,145.498 100.495,155.498 118.5,165.5C 118.167,166.5 117.5,167.167 116.5,167.5C 113.984,167.245 111.65,166.411 109.5,165C 93.8058,155.822 78.1391,146.655 62.5,137.5C 63.1667,136.833 63.8333,136.167 64.5,135.5 Z"/></g>
<g><path style="opacity:0.912" fill="#aeb1f3" d="M 63.5,143.5 C 65.4747,146.346 68.1413,148.513 71.5,150C 84.8333,157.667 98.1667,165.333 111.5,173C 113.025,174.009 114.692,174.509 116.5,174.5C 116.011,175.995 115.345,177.329 114.5,178.5C 97.4242,169.124 80.4242,159.457 63.5,149.5C 62.2072,147.364 62.2072,145.364 63.5,143.5 Z"/></g>
<g><path style="opacity:0.834" fill="#ef4c4c" d="M 182.5,155.5 C 181.897,152.825 180.564,150.492 178.5,148.5C 184.92,144.045 187.587,145.712 186.5,153.5C 185.14,154.18 183.807,154.847 182.5,155.5 Z"/></g>
<g><path style="opacity:0.914" fill="#f5ce36" d="M 178.5,148.5 C 180.564,150.492 181.897,152.825 182.5,155.5C 168.367,163.803 154.367,172.303 140.5,181C 137.274,182.199 133.941,182.699 130.5,182.5C 130.573,180.973 129.906,179.973 128.5,179.5C 130.312,176.19 132.979,173.69 136.5,172C 150.425,163.875 164.425,156.042 178.5,148.5 Z"/></g>
<g><path style="opacity:1" fill="#b1b5f4" d="M 62.5,137.5 C 78.1391,146.655 93.8058,155.822 109.5,165C 111.65,166.411 113.984,167.245 116.5,167.5C 115.766,168.708 115.433,170.041 115.5,171.5C 98.9112,161.373 81.9112,152.04 64.5,143.5C 62.9254,141.886 62.2587,139.886 62.5,137.5 Z"/></g>
<g><path style="opacity:0.748" fill="#545645" d="M 128.5,179.5 C 129.906,179.973 130.573,180.973 130.5,182.5C 129.448,182.649 128.448,182.483 127.5,182C 128.252,181.329 128.586,180.496 128.5,179.5 Z"/></g>
</svg>
